<svg xmlns="http://www.w3.org/2000/svg" viewBox="0 0 64 64" fill="none">
  <path d="M32 58C32 58 32 30 52 14" stroke="#007a44" stroke-width="3" stroke-linecap="round"/>
  <path d="M32 58C32 58 32 30 12 14" stroke="#007a44" stroke-width="3" stroke-linecap="round"/>
  <path d="M32 58C32 40 32 10 32 6" stroke="#007a44" stroke-width="3.5" stroke-linecap="round"/>
  <path d="M32 20C38 16 46 16 50 20C54 24 50 32 42 30C36 28 32 22 32 20Z" fill="#008047"/>
  <path d="M32 20C26 16 18 16 14 20C10 24 14 32 22 30C28 28 32 22 32 20Z" fill="#008047"/>
  <path d="M32 36C38 32 46 32 50 36C54 40 50 48 42 46C36 44 32 38 32 36Z" fill="#006536"/>
  <path d="M32 36C26 32 18 32 14 36C10 40 14 48 22 46C28 44 32 38 32 36Z" fill="#006536"/>
  <path d="M32 6C36 2 44 2 48 6C52 10 48 18 40 16C34 14 32 8 32 6Z" fill="#00a35b"/>
  <path d="M32 6C28 2 20 2 16 6C12 10 16 18 24 16C30 14 32 8 32 6Z" fill="#00a35b"/>
</svg>